<svg width="24" height="24" viewBox="0 0 24 24" fill="none" xmlns="http://www.w3.org/2000/svg">
<path d="M0 0.799659C0 0.587479 0.0842881 0.383989 0.234322 0.233956C0.384356 0.0839218 0.587845 -0.000366211 0.800025 -0.000366211H3.2001C3.37855 -0.000316911 3.55187 0.0593967 3.69248 0.169279C3.8331 0.279161 3.93294 0.432901 3.97612 0.606052L4.62414 3.19973H23.2007C23.3182 3.19984 23.4342 3.22582 23.5405 3.27582C23.6468 3.32582 23.7408 3.39861 23.8158 3.48903C23.8908 3.57945 23.9449 3.68527 23.9744 3.79898C24.0039 3.91269 24.008 4.0315 23.9863 4.14696L21.5863 16.9474C21.5519 17.1307 21.4547 17.2963 21.3112 17.4155C21.1678 17.5347 20.9872 17.6 20.8006 17.6002H6.4002C6.21368 17.6 6.03309 17.5347 5.88964 17.4155C5.74619 17.2963 5.64889 17.1307 5.61457 16.9474L3.2161 4.17096L2.57608 1.59968H0.800025C0.587845 1.59968 0.384356 1.5154 0.234322 1.36536C0.0842881 1.21533 0 1.01184 0 0.799659ZM8.00025 17.6002C7.15153 17.6002 6.33757 17.9373 5.73744 18.5375C5.1373 19.1376 4.80015 19.9516 4.80015 20.8003C4.80015 21.649 5.1373 22.463 5.73744 23.0631C6.33757 23.6632 7.15153 24.0004 8.00025 24.0004C8.84897 24.0004 9.66292 23.6632 10.2631 23.0631C10.8632 22.463 11.2003 21.649 11.2003 20.8003C11.2003 19.9516 10.8632 19.1376 10.2631 18.5375C9.66292 17.9373 8.84897 17.6002 8.00025 17.6002ZM19.2006 17.6002C18.3519 17.6002 17.5379 17.9373 16.9378 18.5375C16.3376 19.1376 16.0005 19.9516 16.0005 20.8003C16.0005 21.649 16.3376 22.463 16.9378 23.0631C17.5379 23.6632 18.3519 24.0004 19.2006 24.0004C20.0493 24.0004 20.8633 23.6632 21.4634 23.0631C22.0635 22.463 22.4007 21.649 22.4007 20.8003C22.4007 19.9516 22.0635 19.1376 21.4634 18.5375C20.8633 17.9373 20.0493 17.6002 19.2006 17.6002ZM8.00025 19.2002C8.42461 19.2002 8.83159 19.3688 9.13165 19.6689C9.43172 19.9689 9.6003 20.3759 9.6003 20.8003C9.6003 21.2246 9.43172 21.6316 9.13165 21.9317C8.83159 22.2318 8.42461 22.4003 8.00025 22.4003C7.57589 22.4003 7.16891 22.2318 6.86884 21.9317C6.56877 21.6316 6.4002 21.2246 6.4002 20.8003C6.4002 20.3759 6.56877 19.9689 6.86884 19.6689C7.16891 19.3688 7.57589 19.2002 8.00025 19.2002ZM19.2006 19.2002C19.625 19.2002 20.0319 19.3688 20.332 19.6689C20.6321 19.9689 20.8006 20.3759 20.8006 20.8003C20.8006 21.2246 20.6321 21.6316 20.332 21.9317C20.0319 22.2318 19.625 22.4003 19.2006 22.4003C18.7762 22.4003 18.3693 22.2318 18.0692 21.9317C17.7691 21.6316 17.6005 21.2246 17.6005 20.8003C17.6005 20.3759 17.7691 19.9689 18.0692 19.6689C18.3693 19.3688 18.7762 19.2002 19.2006 19.2002Z" fill="#FCFBF8"/>
</svg>
