<svg width="25" height="21" viewBox="0 0 25 21" fill="none" xmlns="http://www.w3.org/2000/svg">
<path fill-rule="evenodd" clip-rule="evenodd" d="M0.625 19.4205C0.625 19.1311 0.739935 18.8537 0.94452 18.6491C1.14911 18.4445 1.42658 18.3295 1.71591 18.3295H23.5341C23.8234 18.3295 24.1009 18.4445 24.3055 18.6491C24.5101 18.8537 24.625 19.1311 24.625 19.4205C24.625 19.7098 24.5101 19.9873 24.3055 20.1918C24.1009 20.3964 23.8234 20.5114 23.5341 20.5114H1.71591C1.42658 20.5114 1.14911 20.3964 0.94452 20.1918C0.739935 19.9873 0.625 19.7098 0.625 19.4205ZM0.625 10.6932C0.625 10.4039 0.739935 10.1264 0.94452 9.92179C1.14911 9.71721 1.42658 9.60227 1.71591 9.60227H23.5341C23.8234 9.60227 24.1009 9.71721 24.3055 9.92179C24.5101 10.1264 24.625 10.4039 24.625 10.6932C24.625 10.9825 24.5101 11.26 24.3055 11.4646C24.1009 11.6692 23.8234 11.7841 23.5341 11.7841H1.71591C1.42658 11.7841 1.14911 11.6692 0.94452 11.4646C0.739935 11.26 0.625 10.9825 0.625 10.6932ZM0.625 1.96591C0.625 1.67658 0.739935 1.39911 0.94452 1.19452C1.14911 0.989935 1.42658 0.875 1.71591 0.875H23.5341C23.8234 0.875 24.1009 0.989935 24.3055 1.19452C24.5101 1.39911 24.625 1.67658 24.625 1.96591C24.625 2.25524 24.5101 2.53271 24.3055 2.7373C24.1009 2.94188 23.8234 3.05682 23.5341 3.05682H1.71591C1.42658 3.05682 1.14911 2.94188 0.94452 2.7373C0.739935 2.53271 0.625 2.25524 0.625 1.96591Z" fill="#FCFBF8"/>
</svg>
