<svg width="24" height="24" viewBox="0 0 24 24" fill="none" xmlns="http://www.w3.org/2000/svg">
<path d="M17.6137 15.5143C19.0661 13.5325 19.7166 11.0752 19.4351 8.63433C19.1536 6.19341 17.9608 3.94879 16.0954 2.34954C14.23 0.750283 11.8295 -0.0856613 9.37425 0.00894484C6.91897 0.103551 4.58995 1.12173 2.85314 2.85978C1.11633 4.59784 0.0998188 6.92758 0.00696954 9.38293C-0.0858797 11.8383 0.751782 14.2381 2.35237 16.1024C3.95296 17.9667 6.19843 19.1578 8.63955 19.4376C11.0807 19.7173 13.5374 19.0651 15.5183 17.6113H15.5168C15.5608 17.6713 15.6098 17.7288 15.6638 17.7838L21.4385 23.5585C21.7198 23.84 22.1013 23.9982 22.4992 23.9983C22.8971 23.9985 23.2788 23.8405 23.5602 23.5593C23.8417 23.278 23.9999 22.8965 24 22.4986C24.0001 22.1007 23.8422 21.7191 23.561 21.4376L17.7862 15.6628C17.7326 15.6085 17.6749 15.5599 17.6137 15.5143ZM18.0007 9.74856C18.0007 10.8319 17.7873 11.9047 17.3727 12.9056C16.9581 13.9065 16.3504 14.8159 15.5844 15.582C14.8183 16.348 13.9089 16.9557 12.908 17.3703C11.9071 17.7849 10.8343 17.9983 9.75098 17.9983C8.66762 17.9983 7.59486 17.7849 6.59396 17.3703C5.59306 16.9557 4.68362 16.348 3.91757 15.582C3.15151 14.8159 2.54385 13.9065 2.12926 12.9056C1.71468 11.9047 1.50129 10.8319 1.50129 9.74856C1.50129 7.56061 2.37045 5.46227 3.91757 3.91515C5.46469 2.36804 7.56303 1.49887 9.75098 1.49887C11.9389 1.49887 14.0373 2.36804 15.5844 3.91515C17.1315 5.46227 18.0007 7.56061 18.0007 9.74856Z" fill="#FCFBF8"/>
</svg>
