<svg width="18" height="20" viewBox="0 0 18 20" fill="none" xmlns="http://www.w3.org/2000/svg">
<path d="M17.462 0.857247C17.5018 0.743668 17.5116 0.619245 17.49 0.499401C17.4685 0.379557 17.4167 0.269563 17.341 0.183056C17.2653 0.0965492 17.1691 0.037333 17.0642 0.012749C16.9593 -0.011835 16.8505 -0.000705733 16.7511 0.044757L0.839755 7.31842H0.838661L0.344269 7.54341C0.25063 7.5861 0.169138 7.65753 0.108794 7.74982C0.0484499 7.84211 0.0116026 7.95167 0.00232235 8.06639C-0.00695793 8.18111 0.01169 8.29653 0.0562062 8.3999C0.100722 8.50327 0.169374 8.59057 0.254579 8.65215L0.703032 8.97714L0.704125 8.97964L6.16759 12.9521L9.64365 19.1958L9.64584 19.1983L9.93022 19.7108C9.98428 19.8078 10.0607 19.8858 10.1511 19.9364C10.2415 19.9869 10.3423 20.008 10.4425 19.9973C10.5427 19.9866 10.6384 19.9444 10.719 19.8756C10.7996 19.8067 10.862 19.7138 10.8993 19.607L17.462 0.857247ZM15.4571 3.21972L7.26029 12.5871L7.02512 12.1646C6.98203 12.0871 6.92452 12.0213 6.85668 11.9721L6.48698 11.7034L14.6838 2.33598L15.9723 1.74724L15.4571 3.21972Z" fill="white"/>
</svg>
